<svg width="914" height="400" fill="none" xmlns="http://www.w3.org/2000/svg">
  <path fill="#fff" d="M0 0h914v400H0z"/>
  <path d="M434.556 200.18c-1.476.765-3.313 1.148-5.51 1.148-2.843 0-5.122-.898-6.835-2.693-1.714-1.796-2.571-4.152-2.571-7.069 0-3.135.962-5.669 2.885-7.601 1.932-1.932 4.37-2.899 7.314-2.899 1.896 0 3.469.269 4.717.807v3.227c-1.321-.784-2.78-1.176-4.375-1.176-2.123 0-3.846.679-5.168 2.037-1.312 1.358-1.968 3.172-1.968 5.441 0 2.16.615 3.883 1.845 5.168 1.231 1.276 2.849 1.914 4.854 1.914 1.85 0 3.454-.437 4.812-1.312v3.008zm22.624.82h-3.568l-1.764-4.99h-7.711l-1.695 4.99h-3.555l7.342-19.605h3.664L457.18 201zm-6.193-7.643l-2.721-7.82c-.082-.255-.168-.665-.259-1.23h-.055a7.916 7.916 0 01-.274 1.23l-2.693 7.82h6.002zM466.023 201h-3.349v-19.605h3.349V201zm24.265 0h-3.554l-9.366-14.41a6.406 6.406 0 01-.588-1.135h-.082c.073.419.11 1.317.11 2.693V201h-3.145v-19.605h3.787l9.051 14.068c.383.583.629.984.738 1.203h.055c-.091-.52-.137-1.399-.137-2.639v-12.632h3.131V201z" fill="#333"/>
  <path d="M380.961 225.227a7.368 7.368 0 01-3.656.968c-.813 0-1.542-.138-2.188-.414a4.795 4.795 0 01-1.648-1.164 5.24 5.24 0 01-1.047-1.781 6.928 6.928 0 01-.36-2.281c0-.547.058-1.073.172-1.578a6.4 6.4 0 01.516-1.422 5.56 5.56 0 01.836-1.203 5.21 5.21 0 012.531-1.532 6.216 6.216 0 011.649-.211c1.109 0 2.099.198 2.968.594v1.149a6.268 6.268 0 00-3.093-.797c-.683 0-1.3.125-1.852.375a4.183 4.183 0 00-1.414 1.031 4.715 4.715 0 00-.898 1.555 5.817 5.817 0 00-.329 1.937 6.323 6.323 0 00.266 1.922 4.38 4.38 0 00.828 1.516c.365.427.815.76 1.352 1 .536.239 1.156.359 1.859.359.948 0 1.771-.198 2.469-.594v-3.414h-2.547v-.945h3.586v4.93zm2.922-9.25a.693.693 0 01-.5-.204.682.682 0 01-.211-.515c0-.203.07-.37.211-.5a.736.736 0 01.781-.149.614.614 0 01.227.141.64.64 0 01.156.227.614.614 0 01.062.281.704.704 0 01-.211.515.766.766 0 01-.515.204zM383.391 226v-8h1v8h-1zm7.015-.094a2.477 2.477 0 01-1.125.258c-1.291 0-1.937-.745-1.937-2.234v-5.055h-1.406V218h1.406v-2.016l1-.328V218h2.062v.875h-2.062v4.898c0 .542.088.933.265 1.172.177.24.477.36.899.36.312 0 .612-.094.898-.282v.883zm8.969.094v-5.242h-6.109V226h-1.039v-11.203h1.039v5.023h6.109v-5.023h1.039V226h-1.039zm9.016 0v-1.359h-.032c-.541 1.031-1.382 1.547-2.523 1.547-1.901 0-2.852-1.162-2.852-3.485V218h1v4.516c0 .958.17 1.666.508 2.125.344.458.867.687 1.57.687.344 0 .657-.065.938-.195.286-.136.531-.323.734-.563.209-.244.37-.536.485-.875.114-.338.172-.713.172-1.125V218h1v8h-1zm4.578-1.289V226h-1v-11.844h1v5.375H413c.297-.557.693-.982 1.188-1.273a3.24 3.24 0 011.687-.446c.51 0 .966.094 1.367.282.406.182.748.445 1.024.789.281.344.494.758.64 1.242.151.484.227 1.023.227 1.617 0 .662-.086 1.266-.258 1.813a4.184 4.184 0 01-.719 1.398 3.287 3.287 0 01-1.14.914c-.443.214-.94.321-1.493.321-1.13 0-1.971-.493-2.523-1.477h-.031zm0-2.039c0 .364.06.708.179 1.031.125.318.297.599.516.844.219.239.482.43.789.57.313.141.656.211 1.031.211.401 0 .763-.083 1.086-.25a2.38 2.38 0 00.821-.726c.229-.313.403-.691.523-1.133.125-.443.188-.938.188-1.485 0-.468-.058-.89-.172-1.265a2.854 2.854 0 00-.492-.969 2.069 2.069 0 00-.766-.609 2.302 2.302 0 00-1-.211 2.62 2.62 0 00-1.125.234 2.498 2.498 0 00-.852.625 2.786 2.786 0 00-.539.938 3.373 3.373 0 00-.187 1.132v1.063zm20.273 2.914c-.864.406-1.851.609-2.961.609-.791 0-1.51-.138-2.156-.414a4.875 4.875 0 01-1.656-1.164 5.265 5.265 0 01-1.055-1.765 6.575 6.575 0 01-.367-2.235c0-.849.13-1.638.391-2.367a5.63 5.63 0 011.132-1.906 5.212 5.212 0 011.774-1.274c.698-.307 1.479-.461 2.344-.461.953 0 1.804.146 2.554.438v1.109a5.67 5.67 0 00-2.57-.601c-.724 0-1.367.125-1.93.375a3.99 3.99 0 00-1.422 1.047 4.566 4.566 0 00-.882 1.578 6.165 6.165 0 00-.305 1.984c0 .646.091 1.255.273 1.828.183.568.451 1.065.805 1.492.359.427.805.766 1.336 1.016s1.148.375 1.851.375c1.079 0 2.026-.227 2.844-.68v1.016zm6.836.414v-1.422h-.031a2.934 2.934 0 01-1.07 1.188 2.808 2.808 0 01-1.524.422c-.385 0-.734-.055-1.047-.165a2.317 2.317 0 01-.789-.461 2.166 2.166 0 01-.5-.726 2.452 2.452 0 01-.172-.93c0-.724.224-1.299.672-1.726.448-.433 1.125-.714 2.031-.844l2.43-.352c0-1.536-.596-2.304-1.789-2.304-.932 0-1.797.341-2.594 1.023v-1.094c.167-.119.354-.226.563-.32.213-.099.437-.182.672-.25.234-.073.474-.128.718-.164.25-.042.493-.063.727-.063.891 0 1.563.25 2.016.75.458.5.687 1.245.687 2.235V226h-1zm-2.062-3.883c-.36.052-.667.117-.922.195a1.864 1.864 0 00-.633.321c-.167.13-.289.294-.367.492a1.925 1.925 0 00-.117.719c0 .213.036.411.109.594.078.182.187.341.328.476.146.13.32.232.524.305.208.073.442.109.703.109a2.277 2.277 0 001.742-.766c.219-.239.388-.526.508-.859.125-.333.187-.695.187-1.086v-.789l-2.062.289zm10.789 3.524c-.594.359-1.313.544-2.157.554a3.666 3.666 0 01-1.546-.297 3.41 3.41 0 01-1.172-.843 3.802 3.802 0 01-.742-1.282 4.865 4.865 0 01-.258-1.609c0-.599.091-1.161.273-1.687.182-.532.448-.993.797-1.383a3.745 3.745 0 011.281-.938c.505-.229 1.084-.344 1.735-.344.661 0 1.265.128 1.812.383v1.063a3.357 3.357 0 00-1.89-.578c-.474 0-.896.091-1.266.273-.37.177-.682.422-.938.735-.25.307-.442.669-.578 1.085-.13.412-.195.849-.195 1.313 0 .427.055.836.164 1.226.115.391.286.737.516 1.04.234.296.528.533.882.71.355.178.771.266 1.25.266.75 0 1.428-.224 2.032-.672v.985zm7.328.359v-4.703c0-.896-.162-1.555-.485-1.977-.322-.427-.825-.64-1.507-.64a2.237 2.237 0 00-1.688.758 2.743 2.743 0 00-.523.898 3.362 3.362 0 00-.196 1.187V226h-1v-11.844h1v5.227h.032c.625-1.047 1.52-1.571 2.687-1.571.891 0 1.56.274 2.008.821.448.547.672 1.354.672 2.422V226h-1zm3.89-3.82c.006.489.071.929.196 1.32s.304.721.539.992c.234.271.518.479.851.625.339.141.719.211 1.141.211.901 0 1.753-.315 2.555-.945v.984c-.766.547-1.693.821-2.782.821a3.667 3.667 0 01-1.461-.282 3.053 3.053 0 01-1.117-.812c-.307-.36-.544-.8-.711-1.321-.166-.52-.25-1.114-.25-1.781 0-.599.092-1.153.274-1.664.182-.51.435-.95.758-1.32a3.417 3.417 0 011.148-.875 3.295 3.295 0 011.453-.321c.516 0 .972.092 1.367.274.396.177.727.432.993.766.27.333.476.739.617 1.218.14.479.211 1.016.211 1.61v.5h-5.782zm4.75-.875c-.015-.834-.213-1.479-.593-1.938-.381-.458-.909-.687-1.586-.687-.339 0-.654.06-.946.179-.286.12-.539.295-.757.524-.219.224-.401.5-.547.828-.141.323-.24.687-.297 1.094h4.726zm8.586 4.695h-1.039v-11.203h1.039V226zm8.149 0v-4.609c0-1.808-.656-2.711-1.969-2.711-.349 0-.672.07-.969.211a2.306 2.306 0 00-.773.57 2.77 2.77 0 00-.508.875 3.18 3.18 0 00-.18 1.086V226h-1v-8h1v1.391h.032c.593-1.052 1.487-1.579 2.679-1.579.875 0 1.542.284 2 .852.459.568.688 1.388.688 2.461V226h-1zm6.265 0h-.953l-3.062-8h1.101l2.211 6.094c.136.37.222.695.258.976h.031a4.88 4.88 0 01.243-.945l2.289-6.125h1.07l-3.188 8zm8.915 0v-1.422h-.032c-.26.511-.617.906-1.07 1.188a2.808 2.808 0 01-1.524.422c-.385 0-.734-.055-1.046-.165a2.298 2.298 0 01-.789-.461 2.138 2.138 0 01-.5-.726 2.433 2.433 0 01-.172-.93c0-.724.224-1.299.672-1.726.447-.433 1.125-.714 2.031-.844l2.43-.352c0-1.536-.597-2.304-1.79-2.304-.932 0-1.796.341-2.593 1.023v-1.094c.166-.119.354-.226.562-.32.214-.099.438-.182.672-.25.234-.073.474-.128.719-.164a4.38 4.38 0 01.726-.063c.891 0 1.563.25 2.016.75.458.5.688 1.245.688 2.235V226h-1zm-2.063-3.883a6.276 6.276 0 00-.922.195 1.864 1.864 0 00-.633.321 1.15 1.15 0 00-.367.492 1.925 1.925 0 00-.117.719c0 .213.036.411.109.594.078.182.188.341.328.476.146.13.321.232.524.305.208.073.443.109.703.109a2.273 2.273 0 001.742-.766c.219-.239.388-.526.508-.859.125-.333.188-.695.188-1.086v-.789l-2.063.289zm5.469 3.883v-11.844h1V226h-1zm4.07-10.023a.695.695 0 01-.5-.204.682.682 0 01-.211-.515c0-.203.07-.37.211-.5a.736.736 0 01.781-.149.614.614 0 01.227.141c.068.062.12.138.156.227a.615.615 0 01.063.281.737.737 0 01-.211.515.783.783 0 01-.235.149.7.7 0 01-.281.055zM503.672 226v-8h1v8h-1zm9.187 0v-1.406h-.031a2.865 2.865 0 01-1.14 1.179c-.49.276-1.047.415-1.672.415-.5 0-.956-.092-1.368-.274a2.962 2.962 0 01-1.046-.805 3.756 3.756 0 01-.68-1.265 5.582 5.582 0 01-.234-1.68c0-.646.085-1.234.257-1.766a4.15 4.15 0 01.743-1.375 3.308 3.308 0 011.156-.89 3.484 3.484 0 011.508-.321c1.151 0 1.976.461 2.476 1.383h.031v-5.039h1V226h-1zm0-4.828c0-.349-.06-.675-.179-.977a2.33 2.33 0 00-1.274-1.32 2.428 2.428 0 00-.984-.195c-.396 0-.761.078-1.094.234a2.4 2.4 0 00-.859.68 3.27 3.27 0 00-.555 1.07 4.88 4.88 0 00-.195 1.438c0 .505.06.958.179 1.359.12.401.29.74.508 1.016.224.276.49.487.797.632.307.146.649.219 1.024.219.406 0 .77-.073 1.093-.219.328-.145.604-.346.828-.601.23-.255.404-.555.524-.899.125-.343.187-.711.187-1.101v-1.336zm8.188 4.828v-1.422h-.031a2.936 2.936 0 01-1.071 1.188 2.805 2.805 0 01-1.523.422c-.386 0-.734-.055-1.047-.165a2.317 2.317 0 01-.789-.461 2.152 2.152 0 01-.5-.726 2.433 2.433 0 01-.172-.93c0-.724.224-1.299.672-1.726.448-.433 1.125-.714 2.031-.844l2.43-.352c0-1.536-.596-2.304-1.789-2.304-.932 0-1.797.341-2.594 1.023v-1.094c.167-.119.354-.226.563-.32.213-.099.437-.182.671-.25a4.74 4.74 0 01.719-.164c.25-.042.492-.063.727-.063.89 0 1.562.25 2.015.75.459.5.688 1.245.688 2.235V226h-1zm-2.063-3.883a6.305 6.305 0 00-.922.195 1.85 1.85 0 00-.632.321c-.167.13-.289.294-.368.492a1.925 1.925 0 00-.117.719c0 .213.037.411.11.594.078.182.187.341.328.476.146.13.32.232.523.305.209.073.443.109.703.109a2.277 2.277 0 001.743-.766c.218-.239.388-.526.507-.859.125-.333.188-.695.188-1.086v-.789l-2.063.289zm8.907 3.789a2.48 2.48 0 01-1.125.258c-1.292 0-1.938-.745-1.938-2.234v-5.055h-1.406V218h1.406v-2.016l1-.328V218h2.063v.875h-2.063v4.898c0 .542.089.933.266 1.172.177.24.476.36.898.36.313 0 .612-.094.899-.282v.883zm4.804.282a4.12 4.12 0 01-1.601-.297 3.448 3.448 0 01-1.203-.836 3.737 3.737 0 01-.766-1.305 5.052 5.052 0 01-.266-1.68c0-.666.094-1.263.282-1.789a3.75 3.75 0 01.797-1.336 3.428 3.428 0 011.257-.843 4.444 4.444 0 011.641-.29c.578 0 1.099.097 1.562.29.464.187.857.46 1.18.82.323.359.57.797.742 1.312.172.516.258 1.102.258 1.758a5.11 5.11 0 01-.273 1.711 3.802 3.802 0 01-.766 1.32c-.333.37-.74.657-1.219.86-.479.203-1.021.305-1.625.305zm.078-7.508c-.437 0-.833.075-1.187.226a2.513 2.513 0 00-.914.664c-.25.287-.443.641-.578 1.063-.136.416-.203.89-.203 1.422 0 .5.067.95.203 1.351.135.401.325.745.57 1.032.25.286.552.507.906.664a3 3 0 001.188.226 3.01 3.01 0 001.187-.219c.344-.151.636-.367.875-.648.24-.287.42-.635.539-1.047.125-.411.188-.88.188-1.406 0-1.078-.24-1.901-.719-2.469-.479-.573-1.164-.859-2.055-.859zm9.789.343c-.234-.171-.536-.257-.906-.257-.265 0-.5.052-.703.156a1.77 1.77 0 00-.539.406 2.635 2.635 0 00-.391.602c-.104.224-.19.458-.257.703a5.88 5.88 0 00-.141.742c-.026.25-.039.487-.039.711V226h-.992v-8h.992v1.711h.031c.094-.292.211-.552.352-.781a2.39 2.39 0 01.5-.586c.187-.162.39-.284.609-.367.224-.084.458-.125.703-.125.162 0 .305.01.43.031.13.021.247.052.351.094v1.046z" fill="#999"/>
</svg>
